<?xml version="1.0" encoding="utf-8"?>
<!-- Generator: Adobe Illustrator 24.1.1, SVG Export Plug-In . SVG Version: 6.00 Build 0)  -->
<svg version="1.1" id="Layer_1" xmlns="http://www.w3.org/2000/svg" xmlns:xlink="http://www.w3.org/1999/xlink" x="0px" y="0px"
	 width="20" height="20" fill="#384aeb" viewBox="0 0 512 512" style="enable-background:new 0 0 512 512;" xml:space="preserve">
<g>
	<path d="M333.91,337.81v101.84c0,12.24-8.9,22.26-21.15,22.26H22.26C10.02,461.91,0,451.9,0,439.65V72.35
		C0,60.1,10.02,50.09,22.26,50.09h290.5c12.24,0,21.15,10.02,21.15,22.26v101.84c0,12.24-10.02,22.26-22.26,22.26
		s-22.26-10.02-22.26-22.26V94.61H44.52v322.78h244.87v-79.58c0-12.24,10.02-22.26,22.26-22.26S333.91,325.57,333.91,337.81z
		 M505.32,239.3l-86.81-87.93c-8.91-8.9-22.82-8.9-31.72,0c-8.9,8.9-8.9,22.82,0,31.73l49.53,50.09l-269.91,0.55
		c-12.24,0-22.26,10.02-22.26,22.26s10.02,22.26,22.26,22.26l269.91-0.55l-49.53,50.09c-8.9,8.9-8.35,22.82,0,31.72
		c4.45,4.46,10.02,6.68,15.58,6.68c5.57,0,11.69-2.22,15.58-6.68l87.37-87.93C514.23,262.12,514.23,248.21,505.32,239.3z"/>
</g>
</svg>
